<svg width="706" height="339" viewBox="0 0 706 339" fill="none" xmlns="http://www.w3.org/2000/svg">
  <path
    d="M692.585 338.5C699.994 338.5 706.029 332.489 705.723 325.086C702.215 240.185 665.505 159.457 602.609 99.1444C536.408 35.6633 446.621 6.77788e-06 353 0C259.379 -6.77788e-06 169.592 35.6633 103.391 99.1443C40.4955 159.457 3.78523 240.185 0.276993 325.086C-0.0289035 332.489 6.0063 338.5 13.4154 338.5C20.8246 338.5 26.7996 332.489 27.1306 325.087C30.6225 247.012 64.4999 172.824 122.364 117.337C183.532 58.6813 266.495 25.7288 353 25.7288C439.505 25.7288 522.468 58.6814 583.636 117.337C641.5 172.824 675.378 247.012 678.869 325.087C679.2 332.489 685.175 338.5 692.585 338.5Z"
    fill="#303030" />
</svg>